<svg width="28" height="28" viewBox="0 0 28 28" fill="none" xmlns="http://www.w3.org/2000/svg">
<g clip-path="url(#clip0_8613_47701)">
<circle opacity="0.1" cx="14" cy="14" r="14" fill="#F3CA5F"/>
<path d="M14 4C19.5227 4.00009 24 8.47731 24 14C23.9999 19.5226 19.5226 23.9999 14 24C8.47731 24 4.00009 19.5227 4 14C4 8.47725 8.47725 4 14 4ZM14.5107 9.7373C14.1812 8.92078 13.9035 8.64721 13.5078 9.62207C12.6422 11.6997 11.6087 12.6895 9.57422 13.5469C9.36996 13.6412 9.00239 13.8057 9 14C9.00275 14.1941 9.36765 14.3578 9.57422 14.4521C11.6061 15.307 12.6423 16.2995 13.5078 18.377C13.9083 19.3693 14.1869 19.0582 14.5107 18.2627C15.3788 16.2546 16.3482 15.3223 18.3955 14.4521C18.6102 14.3498 18.9641 14.2136 19 14.0098V13.9873C18.9641 13.7851 18.6125 13.6473 18.3955 13.5449V13.5469C16.3485 12.6768 15.3787 11.746 14.5107 9.7373Z" fill="#F3CA5F"/>
<path d="M14 4C19.5227 4.00009 24 8.47731 24 14C23.9999 19.5226 19.5226 23.9999 14 24C8.47731 24 4.00009 19.5227 4 14C4 8.47725 8.47725 4 14 4ZM14.5107 9.7373C14.1812 8.92078 13.9035 8.64721 13.5078 9.62207C12.6422 11.6997 11.6087 12.6895 9.57422 13.5469C9.36996 13.6412 9.00239 13.8057 9 14C9.00275 14.1941 9.36765 14.3578 9.57422 14.4521C11.6061 15.307 12.6423 16.2995 13.5078 18.377C13.9083 19.3693 14.1869 19.0582 14.5107 18.2627C15.3788 16.2546 16.3482 15.3223 18.3955 14.4521C18.6102 14.3498 18.9641 14.2136 19 14.0098V13.9873C18.9641 13.7851 18.6125 13.6473 18.3955 13.5449V13.5469C16.3485 12.6768 15.3787 11.746 14.5107 9.7373Z" fill="url(#paint0_linear_8613_47701)" style="mix-blend-mode:overlay"/>
</g>
<defs>
<linearGradient id="paint0_linear_8613_47701" x1="14" y1="4" x2="14" y2="24" gradientUnits="userSpaceOnUse">
<stop stop-color="white"/>
<stop offset="1"/>
</linearGradient>
<clipPath id="clip0_8613_47701">
<rect width="28" height="28" fill="white"/>
</clipPath>
</defs>
</svg>
