<svg width="20" height="20" viewBox="0 0 20 20" fill="none" xmlns="http://www.w3.org/2000/svg">
<path d="M2 17.1969V2.79688H10V5.99688H18V17.1969H2ZM3.6 15.5969H5.2V13.9969H3.6V15.5969ZM3.6 12.3969H5.2V10.7969H3.6V12.3969ZM3.6 9.19688H5.2V7.59688H3.6V9.19688ZM3.6 5.99688H5.2V4.39688H3.6V5.99688ZM6.8 15.5969H8.4V13.9969H6.8V15.5969ZM6.8 12.3969H8.4V10.7969H6.8V12.3969ZM6.8 9.19688H8.4V7.59688H6.8V9.19688ZM6.8 5.99688H8.4V4.39688H6.8V5.99688ZM10 15.5969H16.4V7.59688H10V9.19688H11.6V10.7969H10V12.3969H11.6V13.9969H10V15.5969ZM13.2 10.7969V9.19688H14.8V10.7969H13.2ZM13.2 13.9969V12.3969H14.8V13.9969H13.2Z" fill="url(#paint0_linear_2389_24192)"/>
<defs>
<linearGradient id="paint0_linear_2389_24192" x1="10" y1="2.79687" x2="10" y2="17.1969" gradientUnits="userSpaceOnUse">
<stop stop-color="#00FF66"/>
<stop offset="1" stop-color="#62ECFE"/>
</linearGradient>
</defs>
</svg>
